<svg xmlns="http://www.w3.org/2000/svg" width="444" height="905" viewBox="0 0 444 905">
    <defs>
        <filter id="a" width="103.1%" height="104%" x="-1.5%" y="-2%" filterUnits="objectBoundingBox">
            <feGaussianBlur in="SourceGraphic" stdDeviation="5"/>
        </filter>
    </defs>
    <g fill="none" fill-rule="evenodd" opacity=".1">
        <path fill="#FF8A65" d="M941.9 210.068C863.24 181.183 824.593 58.61 668.923 17.84 513.253-22.932 334.344-15.932 239.24 120.068c-95.105 136-14 394-115.5 433s-196.5 273.137-43.5 287.126c153 13.988 477.316-113.34 533-121.733 55.683-8.393 214 62.683 309 81.607s206 121.545 206-19.868c0-141.414 5.055-216.25-90.643-306.19-95.697-89.942-17.037-235.058-95.697-263.942z" style="mix-blend-mode:multiply"/>
        <path fill="#FF5252" d="M924.614 349.429c-68.531-25.156-102.202-131.902-237.826-167.41-135.624-35.507-291.496-29.41-374.354 89.03-82.859 118.44-12.198 343.13-100.628 377.094S40.61 886.015 173.908 898.197c133.298 12.182 415.853-98.706 464.367-106.015 48.513-7.31 186.444 54.589 269.21 71.07 82.768 16.48 179.475 105.852 179.475-17.303 0-123.156 4.404-188.329-78.97-266.657-83.376-78.33-14.844-204.708-83.376-229.863z" filter="url(#a)" style="mix-blend-mode:multiply" transform="matrix(1 0 0 -1 0 1069)"/>
    </g>
</svg>
