<svg xmlns="http://www.w3.org/2000/svg" width="337" height="394" viewBox="0 0 337 394">
    <g fill="none" fill-rule="nonzero" opacity=".15">
        <path fill="#DCDCDC" d="M140.03 393.81c108.694 0 196.809-88.115 196.809-196.81C336.839 88.305 248.724.19 140.029.19 31.334.19-56.78 88.305-56.78 197c0 108.695 88.115 196.81 196.81 196.81zm0-8.375C35.96 385.435-48.406 301.07-48.406 197c0-104.07 84.365-188.435 188.434-188.435C244.1 8.565 328.464 92.93 328.464 197c0 104.07-84.365 188.435-188.435 188.435z"/>
        <g fill="#FF8A65">
            <path d="M68.7 125.656l43.595 48.387 6.269-5.636L74.97 120.02z"/>
            <path d="M93.632 178.625c18.632 0 33.735-15.088 33.735-33.7 0-18.612-15.103-33.7-33.735-33.7-18.631 0-33.735 15.088-33.735 33.7 0 18.612 15.104 33.7 33.735 33.7zm0-8.425c-13.973 0-25.301-11.316-25.301-25.275 0-13.959 11.328-25.275 25.301-25.275 13.974 0 25.302 11.316 25.302 25.275 0 13.959-11.328 25.275-25.302 25.275zM235.27 134.076c17.292 17.292 17.307 45.312.034 62.585l-98.296 98.296c-17.273 17.273-45.293 17.258-62.585-.033-17.291-17.292-17.306-45.312-.033-62.585l98.296-98.296c17.273-17.273 45.293-17.258 62.585.033zm-5.957 5.958c-13.998-13.998-36.68-14.01-50.664-.027l-98.295 98.296c-13.983 13.983-13.971 36.666.026 50.663 13.998 13.998 36.681 14.01 50.664.027l98.296-98.296c13.983-13.983 13.971-36.666-.027-50.663z"/>
            <path d="M139.35 201.08l29.817 29.818-47.658 47.659c-8.225 8.225-21.568 8.218-29.802-.016-8.234-8.234-8.241-21.577-.016-29.802l47.658-47.659zm.006 11.921l-41.702 41.701c-4.935 4.936-4.93 12.941.01 17.882 4.94 4.94 12.946 4.944 17.881.01l41.701-41.702-17.89-17.89z"/>
        </g>
    </g>
</svg>
