<svg xmlns="http://www.w3.org/2000/svg" width="1920" height="922" viewBox="0 0 1920 922">
    <defs>
        <linearGradient id="a" x1="50%" x2="47.953%" y1="38.644%" y2="86.373%">
            <stop offset="0%" stop-color="#F26A35"/>
            <stop offset="100%" stop-color="#CA2061"/>
        </linearGradient>
        <linearGradient id="b" x1="50%" x2="50%" y1="103.135%" y2="0%">
            <stop offset="0%" stop-color="#EE3048"/>
            <stop offset="100%" stop-color="#F26A35"/>
        </linearGradient>
    </defs>
    <g fill="none" fill-rule="evenodd">
        <path fill="#FFF" d="M0 0h1920v922H0z"/>
        <path fill="url(#a)" d="M0 0h1920v915c-129.344-111.148-289.015-166.722-479.013-166.722-284.998 0-690.994 37.447-961.991 37.447-180.665 0-340.33-23.036-478.996-69.108V0z" opacity=".524" style="mix-blend-mode:normal" transform="matrix(-1 0 0 1 1920 0)"/>
        <path fill="url(#b)" d="M0 0h1921.68c37.754 444.508 37.76 694.66.018 750.456-56.612 83.694-193.985-42.429-478.937-42.429C1157.808 708.027 751.875 867 480.92 867 300.283 867 139.976 814.01 0 708.027V0z" opacity=".524" style="mix-blend-mode:multiply"/>
    </g>
</svg>
