<svg xmlns="http://www.w3.org/2000/svg" width="64" height="64" viewBox="0 0 64 64">
    <g fill="none" fill-rule="nonzero">
        <path fill="#DCDCDC" d="M32 64c17.673 0 32-14.327 32-32C64 14.327 49.673 0 32 0 14.327 0 0 14.327 0 32c0 17.673 14.327 32 32 32zm0-1.362C15.079 62.638 1.362 48.921 1.362 32S15.079 1.362 32 1.362 62.638 15.079 62.638 32 48.921 62.638 32 62.638z"/>
        <path fill="#FF5252" d="M31.66 16.34c8.514 0 15.475 6.651 15.971 15.041l3.308-4.013 1.05.867-4.973 6.031-5.73-5.994.984-.941 4.005 4.189c-.426-7.703-6.806-13.818-14.615-13.818-8.085 0-14.639 6.554-14.639 14.638 0 8.085 6.554 14.639 14.639 14.639 3.758 0 7.29-1.422 9.977-3.927l.285-.273.955.971a15.948 15.948 0 0 1-11.217 4.59c-8.837 0-16-7.163-16-16 0-8.836 7.163-16 16-16zm-3.405 9.378l.576.909c3.022 4.775 4.53 7.99 4.53 9.799a5.106 5.106 0 1 1-10.212 0c0-1.757 1.423-4.842 4.276-9.394l.255-.405.575-.909zm0 2.557c-2.494 4.042-3.744 6.8-3.744 8.15a3.745 3.745 0 1 0 7.489 0c0-1.35-1.25-4.108-3.745-8.15zm6.157-5.673l.546.864c3.023 4.774 4.531 7.99 4.531 9.798 0 2.773-2.031 4.996-4.718 5.11l-.22.006v-1.362c2.026 0 3.577-1.642 3.577-3.754 0-1.355-1.26-4.13-3.775-8.198l-.042.062-.657.952-.236.34c-.493.711-.89 1.27-1.25 1.76l-.153.205-1.091-.815a68.19 68.19 0 0 0 1.61-2.265l.656-.95c.206-.3.371-.538.523-.756l.112-.16.587-.837z"/>
    </g>
</svg>
