<svg xmlns="http://www.w3.org/2000/svg" xmlns:xlink="http://www.w3.org/1999/xlink" width="89" height="27" viewBox="0 0 89 27">
    <defs>
        <linearGradient id="a" x1="58.615%" x2="89.427%" y1="9.59%" y2="60.851%">
            <stop offset="0%" stop-color="#FF177B"/>
            <stop offset="100%" stop-color="#FFEC73"/>
        </linearGradient>
        <linearGradient id="b" x1="37.54%" x2="1.694%" y1="-44.035%" y2="101.06%">
            <stop offset="0%" stop-color="#064AA2"/>
            <stop offset="100%" stop-color="#63FFD4"/>
        </linearGradient>
        <path id="c" d="M6.817 6.337L.245 0C.092.036 0 .153 0 .35v12.125c0 .166.066.265.147.3l6.67-6.438z"/>
        <path id="e" d="M.271 6.426l3.8-2.123 1.677-.946L8.51 1.843 6.671.025.001 6.463a.46.46 0 0 0 .308-.04"/>
        <linearGradient id="f" x1="77.675%" x2="4.105%" y1="50%" y2="100%">
            <stop offset="0%" stop-color="#FF4521"/>
            <stop offset="100%" stop-color="#8A33DB"/>
        </linearGradient>
        <linearGradient id="h" x1="0%" x2="64.224%" y1="-26.788%" y2="101.754%">
            <stop offset="0%" stop-color="#00A3B5"/>
            <stop offset="100%" stop-color="#D6FFA1"/>
        </linearGradient>
        <path id="i" d="M.399.107a.485.485 0 0 0-.354-.06l6.577 6.346 1.82-1.752L5.7 3.095 1.553.758.399.108z"/>
    </defs>
    <g fill="none" fill-rule="evenodd" transform="translate(1 1)">
        <rect width="87" height="24.745" y=".117" fill-rule="nonzero" stroke="#FFF" rx="12.372"/>
        <path fill="url(#a)" fill-rule="nonzero" d="M5.894 3.095L.603.112C.309-.053.016.047.016.392v12.152c0 .259.21.371.465.227L5.894 9.72l1.052-.593 1.691-.953 2.637-1.486c.31-.174.28-.414.019-.551A352.438 352.438 0 0 1 8.637 4.64L5.894 3.095z" transform="translate(10.175 6.05)"/>
        <path fill="url(#b)" fill-rule="nonzero" d="M6.817 6.337L.245 0C.092.036 0 .153 0 .35v12.125c0 .166.066.265.147.3l6.67-6.438z" transform="translate(10.175 6.1)"/>
        <g transform="translate(10.175 6.1)">
            <mask id="d" fill="#fff">
                <use xlink:href="#c"/>
            </mask>
            <path d="M8.632 4.59L5.886 3.045C5.876 3.066.88.244.589.1.292-.088 0 .013 0 .35v12.175c0 .267.209.38.441.25.278-.158 5.435-3.072 5.445-3.095l2.746-1.547c-.014.022 2.312-1.293 2.6-1.447.33-.195.301-.434.049-.548-.27-.162-2.663-1.523-2.649-1.547" mask="url(#d)"/>
        </g>
        <g transform="translate(10.322 12.413)">
            <mask id="g" fill="#fff">
                <use xlink:href="#e"/>
            </mask>
            <path fill="url(#f)" fill-rule="nonzero" d="M5.74-3.269c-.01.023-5.007-2.8-5.298-2.944-.296-.187-.588-.087-.588.25V6.212c0 .268.209.38.441.25C.573 6.304 5.73 3.39 5.74 3.368l2.747-1.547c-.015.022 2.312-1.293 2.6-1.447.33-.195.3-.435.048-.549-.27-.16-2.663-1.522-2.648-1.547L5.739-3.269z" mask="url(#g)"/>
        </g>
        <g>
            <path fill="url(#h)" fill-rule="nonzero" d="M.399.107a.485.485 0 0 0-.354-.06l6.577 6.346 1.82-1.752L5.7 3.095 1.553.758.399.108z" transform="translate(10.37 6.05)"/>
            <g transform="translate(10.37 6.05)">
                <mask id="j" fill="#fff">
                    <use xlink:href="#i"/>
                </mask>
                <path d="M8.437 4.64L5.69 3.095C5.68 3.116.685.294.393.15.097-.038-.195.063-.195.4v12.174c0 .268.209.38.441.25.278-.157 5.435-3.07 5.444-3.094l2.747-1.547c-.014.022 2.312-1.293 2.6-1.447.33-.195.3-.434.048-.549-.269-.16-2.662-1.522-2.648-1.546" mask="url(#j)"/>
            </g>
        </g>
        <g fill="#FFF" fill-rule="nonzero">
            <path d="M56.734 18.076l-.542.52c-.125.07-.25.15-.374.208a2.59 2.59 0 0 1-1.1.217c-.361 0-.929-.024-1.508-.449-.804-.575-1.156-1.564-1.156-2.426 0-1.784 1.43-2.659 2.597-2.659.408 0 .826.104 1.167.322.566.38.713.875.794 1.14l-2.664 1.092-.872.07c.282 1.462 1.256 2.313 2.333 2.313.538 0 .937-.178 1.304-.362 0 0 .073-.04.021.014zm-1.628-2.935c.214-.08.325-.15.325-.31 0-.463-.506-.998-1.11-.998-.448 0-1.288.36-1.288 1.612 0 .196.023.404.034.612l2.04-.916z"/>
            <path d="M51.175 18.013c0 .446.078.516.45.55.193.024.386.034.576.057l-.417.253h-1.99c.26-.344.305-.379.305-.608v-.256l-.004-6.825h-.88l.847-.414h1.615c-.35.206-.455.331-.5.733l-.002 6.51"/>
            <path d="M48.087 14.05c.259.217.799.677.799 1.549 0 .85-.47 1.25-.946 1.63-.145.15-.316.311-.316.561 0 .254.17.392.293.495l.408.32c.495.425.946.816.946 1.608 0 1.08-1.026 2.168-2.966 2.168-1.634 0-2.424-.792-2.424-1.641 0-.413.202-.999.87-1.4.698-.435 1.645-.493 2.153-.527-.159-.208-.34-.426-.34-.782 0-.194.058-.31.113-.447-.123.012-.247.024-.36.024-1.196 0-1.872-.908-1.872-1.803 0-.528.237-1.113.722-1.538.643-.539 1.41-.632 2.019-.632h2.324l-.723.415h-.7zm-.794 5.083c-.093-.013-.149-.013-.261-.013-.103 0-.717.023-1.193.187-.252.095-.979.374-.979 1.204 0 .828.785 1.426 2 1.426 1.091 0 1.67-.538 1.67-1.262 0-.596-.374-.91-1.237-1.542zm.32-2.21c.259-.265.281-.63.281-.837 0-.823-.481-2.105-1.414-2.105-.291 0-.607.15-.786.38-.19.238-.247.547-.247.844 0 .767.439 2.037 1.403 2.037.282 0 .585-.139.762-.32zM41.06 19.021c-1.797 0-2.758-1.43-2.758-2.725 0-1.514 1.208-2.809 2.927-2.809 1.66 0 2.701 1.33 2.701 2.727 0 1.364-1.028 2.807-2.87 2.807zm1.404-.935c.274-.371.34-.834.34-1.285 0-1.021-.475-2.968-1.881-2.968-.374 0-.751.15-1.023.393-.442.406-.521.916-.521 1.416 0 1.145.553 3.033 1.928 3.033.443 0 .896-.219 1.157-.59zM35.04 19.021c-1.798 0-2.758-1.43-2.758-2.725 0-1.514 1.21-2.809 2.928-2.809 1.66 0 2.7 1.33 2.7 2.727 0 1.364-1.027 2.807-2.87 2.807zm1.405-.935c.272-.371.34-.834.34-1.285 0-1.021-.478-2.968-1.883-2.968-.376 0-.748.15-1.02.393-.444.406-.523.916-.523 1.416 0 1.145.556 3.033 1.929 3.033.443 0 .895-.219 1.157-.59zM31.537 18.68l-1.521.353c-.617.1-1.17.186-1.756.186-2.935 0-4.053-2.195-4.053-3.913 0-2.097 1.584-4.042 4.297-4.042.574 0 1.127.085 1.63.225.797.227 1.17.508 1.403.672l-.884.853-.372.085.265-.43c-.36-.357-1.021-1.016-2.276-1.016-1.679 0-2.945 1.296-2.945 3.189 0 2.033 1.446 3.945 3.764 3.945.682 0 1.033-.14 1.351-.27v-1.742l-1.606.088.851-.465h2.255l-.276.27c-.075.064-.085.086-.105.172a7.849 7.849 0 0 0-.022.521v1.318M60.017 18.129v2.918h-.572v-7.426h.572v.846a2.27 2.27 0 0 1 1.847-.98c1.42 0 2.377 1.09 2.377 2.816 0 1.715-.957 2.828-2.377 2.828-.748 0-1.417-.39-1.847-1.002zm3.637-1.781c0-1.315-.673-2.317-1.866-2.317-.74 0-1.448.593-1.756 1.11v2.402c.308.518 1.016 1.132 1.756 1.132 1.193 0 1.866-1.01 1.866-2.327zM65.024 11.56h.587v7.461h-.587zM71.996 20.533c.123.056.332.09.464.09.35 0 .595-.145.814-.657l.417-.958-2.256-5.422h.64l1.935 4.698 1.916-4.698h.648l-2.752 6.56c-.285.675-.735 1-1.352 1a2.24 2.24 0 0 1-.572-.078l.098-.535M70.38 19.014a10.141 10.141 0 0 1-.089-.49 3.33 3.33 0 0 1-.027-.422 2.29 2.29 0 0 1-.835.73 2.276 2.276 0 0 1-1.164.288c-.56 0-.996-.14-1.307-.423-.31-.283-.466-.666-.466-1.152 0-.484.226-.877.676-1.178.45-.302 1.032-.453 1.752-.453h1.344v-.671c0-.387-.13-.691-.39-.912-.262-.22-.629-.332-1.104-.332-.434 0-.786.102-1.055.3-.266.203-.4.455-.4.757h-.589l-.012-.029c-.021-.408.163-.766.556-1.075.39-.31.902-.465 1.532-.465.628 0 1.137.153 1.52.458.382.303.574.74.574 1.31v2.667a3.572 3.572 0 0 0 .147 1.092h-.663zm-2.045-.388c.489 0 .84-.111 1.199-.331.357-.219.6-.504.727-.85v-1.043h-1.349c-.515 0-.942.116-1.277.35-.336.234-.507.516-.507.845 0 .31.108.557.323.745.215.19.509.284.884.284z"/>
        </g>
        <path fill="#FFF" fill-rule="nonzero" d="M24.704 7.795h.266c.229-.418.42-.888.574-1.408.154-.521.253-1.043.297-1.567h1.782v2.975h.446v1.439h-.543V8.28h-2.28v.954h-.542v-1.44zm1.61-2.485a6.657 6.657 0 0 1-.265 1.246 7.367 7.367 0 0 1-.484 1.239h1.494V5.31h-.746zm4.568 1.657c0 .427-.109.76-.328 1-.218.24-.523.36-.913.36-.244 0-.46-.055-.647-.165a1.093 1.093 0 0 1-.432-.476 1.624 1.624 0 0 1-.15-.72c0-.424.108-.755.325-.993.217-.239.523-.358.918-.358.378 0 .677.122.897.366.22.244.33.572.33.986zm-1.9 0c0 .604.223.906.668.906.44 0 .661-.302.661-.906 0-.598-.222-.897-.665-.897-.233 0-.402.077-.507.232-.104.154-.157.376-.157.665zm3.59 1.36c-.395 0-.695-.115-.9-.346-.206-.231-.308-.563-.308-.996 0-.44.107-.778.322-1.015.215-.236.525-.355.93-.355.276 0 .524.051.744.154l-.167.447c-.235-.091-.428-.137-.58-.137-.452 0-.678.3-.678.902 0 .293.056.514.169.661.112.148.277.222.494.222.247 0 .48-.062.701-.185v.485c-.1.058-.205.1-.317.126a1.9 1.9 0 0 1-.41.037zm3.302-2.664v.435h-.85V8.28h-.557V6.098h-.85v-.435h2.257zm.106 0h.604l.531 1.483c.08.212.134.41.16.597h.02c.014-.087.04-.192.077-.316.038-.124.238-.712.6-1.764h.6l-1.117 2.965c-.203.544-.541.816-1.015.816-.123 0-.242-.013-.359-.04v-.44c.084.019.179.028.286.028.267 0 .455-.155.564-.466l.097-.246-1.048-2.617zm5.27 0V8.28h-.557V6.103h-1.17V8.28h-.555V5.663h2.282zm1.347 0v1.05h1.23v-1.05h.555V8.28h-.555V7.151h-1.23V8.28h-.554V5.663h.554zm4.893 1.304c0 .427-.11.76-.328 1-.219.24-.523.36-.914.36-.243 0-.459-.055-.646-.165a1.093 1.093 0 0 1-.432-.476 1.624 1.624 0 0 1-.151-.72c0-.424.108-.755.326-.993.217-.239.523-.358.918-.358.377 0 .676.122.896.366.22.244.33.572.33.986zm-1.9 0c0 .604.223.906.668.906.44 0 .66-.302.66-.906 0-.598-.221-.897-.665-.897-.233 0-.401.077-.506.232-.105.154-.157.376-.157.665zm6.058-.635c0 .31-.18.496-.54.561v.02c.201.023.355.087.462.19a.54.54 0 0 1 .16.406.658.658 0 0 1-.281.571c-.188.133-.462.2-.82.2h-1.246V5.663h1.24c.684 0 1.025.223 1.025.67zm-.486 1.143c0-.126-.049-.215-.146-.268-.098-.053-.244-.08-.44-.08h-.639v.741h.654c.38 0 .571-.13.571-.393zm-.068-1.095c0-.105-.04-.18-.122-.226-.081-.047-.202-.07-.362-.07h-.673v.63h.59c.186 0 .327-.025.423-.073.096-.048.144-.135.144-.261z"/>
    </g>
</svg>
